<svg xmlns="http://www.w3.org/2000/svg" version="1.1" xmlns:xlink="http://www.w3.org/1999/xlink" xmlns:svgjs="http://svgjs.dev/svgjs" width="1000" height="999" viewBox="0 0 1000 999"><g transform="matrix(1,0,0,1,-0.215743440233382,-0.21552769679306039)"><svg viewBox="0 0 343 343" data-background-color="#ffffff" preserveAspectRatio="xMidYMid meet" height="999" width="1000" xmlns="http://www.w3.org/2000/svg" xmlns:xlink="http://www.w3.org/1999/xlink"><g id="tight-bounds" transform="matrix(1,0,0,1,0.0740000000000407,0.07400000000001228)"><svg viewBox="0 0 342.85155851775386 342.85155851775386" height="342.85155851775386" width="342.85155851775386"><g><svg></svg></g><g><svg viewBox="0 0 342.85155851775386 342.85155851775386" height="342.85155851775386" width="342.85155851775386"><g><path d="M0 171.426c0-94.676 76.75-171.426 171.426-171.426 94.676 0 171.426 76.75 171.426 171.426 0 94.676-76.75 171.426-171.426 171.426-94.676 0-171.426-76.75-171.426-171.426zM171.426 331.845c88.597 0 160.419-71.822 160.419-160.419 0-88.597-71.822-160.419-160.419-160.419-88.597 0-160.419 71.822-160.419 160.419 0 88.597 71.822 160.419 160.419 160.419z" data-fill-palette-color="tertiary" fill="#000000" stroke="transparent"></path><ellipse rx="164.56874808852186" ry="164.56874808852186" cx="171.42577925887693" cy="171.42577925887693" fill="#000000" stroke="transparent" stroke-width="0" fill-opacity="1" data-fill-palette-color="tertiary"></ellipse></g><g transform="matrix(1,0,0,1,64.84655864529837,110.39903288774028)"><svg viewBox="0 0 213.1584412271571 122.0534927422733" height="122.0534927422733" width="213.1584412271571"><g><svg viewBox="0 0 213.1584412271571 122.0534927422733" height="122.0534927422733" width="213.1584412271571"><g><svg viewBox="0 0 213.1584412271571 122.0534927422733" height="122.0534927422733" width="213.1584412271571"><g id="textblocktransform"><svg viewBox="0 0 213.1584412271571 122.0534927422733" height="122.0534927422733" width="213.1584412271571" id="textblock"><g><svg viewBox="0 0 213.1584412271571 122.0534927422733" height="122.0534927422733" width="213.1584412271571"><g transform="matrix(1,0,0,1,0,0)"><svg width="213.1584412271571" viewBox="2.8499999046325684 -36.70000076293945 64.80000305175781 37.10416793823242" height="122.0534927422733" data-palette-color="#ffffff"><path d="M29.6-7.55L31.85-2.75Q31.05-2.2 29.48-1.43 27.9-0.65 25.78-0.1 23.65 0.45 21.1 0.4L21.1 0.4Q16.85 0.35 13.48-1.1 10.1-2.55 7.75-5.08 5.4-7.6 4.13-10.88 2.85-14.15 2.85-17.85L2.85-17.85Q2.85-21.95 4.15-25.38 5.45-28.8 7.88-31.35 10.3-33.9 13.58-35.3 16.85-36.7 20.75-36.7L20.75-36.7Q24.1-36.7 26.8-35.8 29.5-34.9 31.35-33.7L31.35-33.7 29.25-28.7Q27.8-29.7 25.68-30.63 23.55-31.55 20.95-31.55L20.95-31.55Q18.4-31.55 16.13-30.53 13.85-29.5 12.13-27.68 10.4-25.85 9.4-23.43 8.4-21 8.4-18.15L8.4-18.15Q8.4-15.25 9.3-12.8 10.2-10.35 11.88-8.55 13.55-6.75 15.9-5.75 18.25-4.75 21.2-4.75L21.2-4.75Q24-4.75 26.13-5.6 28.25-6.45 29.6-7.55L29.6-7.55ZM45.25-36.3L45.25-22 45.1-20.2 45.85-21.25 60.05-36.3 66.95-36.3 51.95-20.55 67.65 0 60.9 0 48.05-17.2 45.25-14.45 45.25 0 39.85 0 39.85-36.3 45.25-36.3Z" opacity="1" transform="matrix(1,0,0,1,0,0)" fill="#ffffff" class="wordmark-text-0" data-fill-palette-color="quaternary" id="text-0"></path></svg></g></svg></g></svg></g></svg></g><g></g></svg></g></svg></g></svg></g><defs></defs></svg><rect width="342.85155851775386" height="342.85155851775386" fill="none" stroke="none" visibility="hidden"></rect></g></svg></g></svg>